<?xml version="1.0" standalone="no"?>
<!DOCTYPE svg PUBLIC "-//W3C//DTD SVG 20010904//EN"
 "http://www.w3.org/TR/2001/REC-SVG-20010904/DTD/svg10.dtd">
<svg version="1.0" xmlns="http://www.w3.org/2000/svg"
 width="64.000000pt" height="64.000000pt" viewBox="0 0 64.000000 64.000000"
 preserveAspectRatio="xMidYMid meet">

<g transform="translate(0.000000,64.000000) scale(0.100000,-0.100000)"
fill="#000000" stroke="none">
<path d="M241 589 c-114 -33 -201 -149 -201 -270 0 -115 87 -233 195 -265 220
-63 414 131 351 351 -23 79 -100 156 -176 179 -59 18 -118 19 -169 5z m214
-169 c0 -12 -22 -15 -129 -18 -125 -3 -156 3 -141 27 4 8 49 11 138 9 109 -3
132 -6 132 -18z m0 -100 c0 -12 -22 -15 -129 -18 -125 -3 -156 3 -141 27 4 8
49 11 138 9 109 -3 132 -6 132 -18z m0 -100 c0 -12 -22 -15 -129 -18 -125 -3
-156 3 -141 27 4 8 49 11 138 9 109 -3 132 -6 132 -18z"/>
</g>
</svg>
