<?xml version="1.0" standalone="no"?>
<!DOCTYPE svg PUBLIC "-//W3C//DTD SVG 20010904//EN"
 "http://www.w3.org/TR/2001/REC-SVG-20010904/DTD/svg10.dtd">
<svg version="1.0" xmlns="http://www.w3.org/2000/svg"
 width="128.000000pt" height="128.000000pt" viewBox="0 0 128.000000 128.000000"
 preserveAspectRatio="xMidYMid meet">

<g transform="translate(0.000000,128.000000) scale(0.100000,-0.100000)"
fill="#000000" stroke="none">
<path d="M469 1021 l-29 -29 0 -181 0 -181 -114 0 c-195 0 -206 -11 -206 -210
l0 -132 29 -29 29 -29 462 0 462 0 29 29 29 29 0 212 c0 235 -5 259 -61 279
-18 6 -83 11 -145 11 l-114 0 0 101 c0 98 -1 101 -29 130 l-29 29 -142 0 -142
0 -29 -29z m291 -381 l0 -330 -120 0 -120 0 0 330 0 330 120 0 120 0 0 -330z
m318 -132 l2 -198 -120 0 -120 0 0 193 c0 107 3 197 7 201 4 3 57 5 117 4
l111 -3 3 -197z m-640 -80 l3 -118 -121 0 -120 0 0 113 c0 63 3 117 7 121 4 3
57 5 117 4 l111 -3 3 -117z"/>
</g>
</svg>
