<?xml version="1.0" standalone="no"?>
<!DOCTYPE svg PUBLIC "-//W3C//DTD SVG 20010904//EN"
 "http://www.w3.org/TR/2001/REC-SVG-20010904/DTD/svg10.dtd">
<svg version="1.0" xmlns="http://www.w3.org/2000/svg"
 width="64.000000pt" height="64.000000pt" viewBox="0 0 64.000000 64.000000"
 preserveAspectRatio="xMidYMid meet">

<g transform="translate(0.000000,64.000000) scale(0.100000,-0.100000)"
fill="#000000" stroke="none">
<path d="M237 586 c-123 -44 -197 -146 -197 -270 0 -245 286 -374 468 -211
128 115 128 304 0 420 -76 69 -182 92 -271 61z m176 -32 c147 -50 210 -236
127 -373 l-21 -33 -22 20 c-45 40 -83 52 -172 52 -91 0 -138 -13 -169 -49 -11
-11 -23 -21 -28 -21 -5 0 -20 24 -33 53 -98 209 98 426 318 351z m26 -378 c15
-8 34 -22 41 -32 13 -14 11 -19 -14 -39 -76 -61 -226 -57 -303 6 -17 15 -1 44
35 63 37 21 203 21 241 2z"/>
<path d="M275 498 c-64 -35 -86 -88 -65 -153 15 -46 60 -75 119 -75 36 0 49 6
77 34 28 28 34 42 34 75 0 56 -22 95 -64 115 -39 19 -73 20 -101 4z m96 -28
c28 -16 51 -67 44 -99 -7 -34 -41 -67 -76 -76 -31 -8 -83 16 -99 44 -43 81 50
174 131 131z"/>
</g>
</svg>
